<mxGraphModel dx="0" dy="0" grid="1" gridSize="10" guides="1" tooltips="1" connect="1" arrows="1" fold="1" page="0" pageScale="1" background="none" math="0" shadow="0">
  <root>
    <mxCell id="0" />
    <mxCell id="1" parent="0" />
    <mxCell id="node4" parent="1" vertex="1" value="&lt;p style=&quot;margin:0px;margin-top:4px;text-align:center;&quot;&gt;&lt;b&gt;CalculBackTracking&lt;/b&gt;&lt;/p&gt;&lt;hr size=&quot;1&quot;/&gt;&lt;p style=&quot;margin:0 0 0 4px;line-height:1.6;&quot;&gt;+ calculateSimilarity(Producte, Producte): int&lt;br/&gt;+ arrangeProductsBySimilarity(List&amp;lt;ProducteColocat&amp;gt;, int): List&amp;lt;ProducteColocat&amp;gt;&lt;br/&gt;+ generarPermutaciones(ProducteColocat[], int, int, List&amp;lt;ProducteColocat[]&amp;gt;): void&lt;/p&gt;" style="verticalAlign=top;align=left;overflow=fill;fontSize=14;fontFamily=Helvetica;html=1;rounded=0;shadow=0;comic=0;labelBackgroundColor=none;strokeWidth=1;">
      <mxGeometry x="1577" y="1573" width="548" height="120" as="geometry" />
    </mxCell>
    <mxCell id="node5" parent="1" vertex="1" value="&lt;p style=&quot;margin:0px;margin-top:4px;text-align:center;&quot;&gt;&lt;b&gt;ControladorDistribucio&lt;/b&gt;&lt;/p&gt;&lt;hr size=&quot;1&quot;/&gt;&lt;p style=&quot;margin:0 0 0 4px;line-height:1.6;&quot;&gt;- distribucion: Distribucio&lt;br/&gt;- prestatgeria: Prestatgeria&lt;/p&gt;&lt;hr size=&quot;1&quot;/&gt;&lt;p style=&quot;margin:0 0 0 4px;line-height:1.6;&quot;&gt;+ getSimilitud(String, String): int&lt;br/&gt;+ setPrestatgeriaCtrl(ControladorPrestatgeria): void&lt;br/&gt;+ set_similitud(String, String, int): void&lt;br/&gt;+ intercambiar_productes(int, int): void&lt;br/&gt;+ getNumero_prestatges(): int&lt;br/&gt;+ setPrestatgeria(Prestatgeria): void&lt;br/&gt;+ afegeix_producte(String, String, double, int, int, int): boolean&lt;br/&gt;+ set_cantidad_producto(String, int): void&lt;br/&gt;+ set_precio_producto(String, double): void&lt;br/&gt;+ setCambiosManualesRealizados(boolean): void&lt;br/&gt;+ getMatrizDistribucion(): String[][]&lt;br/&gt;+ get_altura_medida(): ArrayList&amp;lt;String&amp;gt;&lt;br/&gt;+ getDistribucion(): Distribucio&lt;br/&gt;+ getSimilitudsProducte(String): ArrayList&amp;lt;String&amp;gt;&lt;br/&gt;+ getProductes(): ArrayList&amp;lt;String&amp;gt;&lt;br/&gt;+ get_Prestatgeria(): Prestatgeria&lt;br/&gt;+ existeix_producte(String): boolean&lt;br/&gt;+ crear_inicialCtrl(ControladorDistribucio, ControladorPrestatgeria): void&lt;br/&gt;+ setProductesColocats(ArrayList&amp;lt;ProducteColocat&amp;gt;): void&lt;br/&gt;+ get_info_producte(String): ArrayList&amp;lt;String&amp;gt;&lt;br/&gt;+ getProductesColocats(): ArrayList&amp;lt;ProducteColocat&amp;gt;&lt;br/&gt;+ crea_distribucio_inicial(String, int): void&lt;br/&gt;+ isCambiosManualesRealizados(): boolean&lt;br/&gt;+ eliminaProducte(String): void&lt;br/&gt;+ crear_inicialCtrlPrestatgeria(ControladorPrestatgeria): void&lt;br/&gt;+ intercanviaProductes(String, String): void&lt;br/&gt;+ crear_inicial(Distribucio, Prestatgeria): void&lt;br/&gt;+ calcula_distribucio(int): void&lt;/p&gt;" style="verticalAlign=top;align=left;overflow=fill;fontSize=14;fontFamily=Helvetica;html=1;rounded=0;shadow=0;comic=0;labelBackgroundColor=none;strokeWidth=1;">
      <mxGeometry x="307" y="-514" width="437" height="760" as="geometry" />
    </mxCell>
    <mxCell id="node13" parent="1" vertex="1" value="&lt;p style=&quot;margin:0px;margin-top:4px;text-align:center;&quot;&gt;&lt;b&gt;ControladorPerfil&lt;/b&gt;&lt;/p&gt;&lt;hr size=&quot;1&quot;/&gt;&lt;p style=&quot;margin:0 0 0 4px;line-height:1.6;&quot;&gt;- persistencia: ControladorPersistenciaPerfil&lt;br/&gt;- perfil: Perfil&lt;/p&gt;&lt;hr size=&quot;1&quot;/&gt;&lt;p style=&quot;margin:0 0 0 4px;line-height:1.6;&quot;&gt;+ eliminarPrestatgeria(Prestatgeria): void&lt;br/&gt;+ cargarTodosPerfiles(): Set&amp;lt;String&amp;gt;&lt;br/&gt;+ limpiarDatos(): void&lt;br/&gt;+ guardarPerfil(): void&lt;br/&gt;+ creaPerfil(String, String): void&lt;br/&gt;+ getUsuari(): String&lt;br/&gt;+ getPrestatgerias(): List&amp;lt;Prestatgeria&amp;gt;&lt;br/&gt;+ eliminarPerfil(String): void&lt;br/&gt;+ añadirPrestatgeria(Prestatgeria): void&lt;br/&gt;+ getContrasenya(): String&lt;br/&gt;+ setUsuari(String): void&lt;br/&gt;+ cargarPerfil(String): void&lt;br/&gt;+ añadirPrestatgeriaCtrl(ControladorPrestatgeria): void&lt;br/&gt;+ buscarPerfil(String): void&lt;br/&gt;+ setContrasenya(String): void&lt;br/&gt;+ setPrestatgerias(List&amp;lt;Prestatgeria&amp;gt;): void&lt;br/&gt;+ getPerfil(): Perfil&lt;/p&gt;" style="verticalAlign=top;align=left;overflow=fill;fontSize=14;fontFamily=Helvetica;html=1;rounded=0;shadow=0;comic=0;labelBackgroundColor=none;strokeWidth=1;">
      <mxGeometry x="-735" y="309" width="374" height="496" as="geometry" />
    </mxCell>
    <mxCell id="node11" parent="1" vertex="1" value="&lt;p style=&quot;margin:0px;margin-top:4px;text-align:center;&quot;&gt;&lt;b&gt;ControladorPrestatgeria&lt;/b&gt;&lt;/p&gt;&lt;hr size=&quot;1&quot;/&gt;&lt;p style=&quot;margin:0 0 0 4px;line-height:1.6;&quot;&gt;- prestatgeria: Prestatgeria&lt;br/&gt;- persistencia: ControladorPersistenciaPrestatgeria&lt;/p&gt;&lt;hr size=&quot;1&quot;/&gt;&lt;p style=&quot;margin:0 0 0 4px;line-height:1.6;&quot;&gt;+ getNom(): String&lt;br/&gt;+ getAltura(): Integer&lt;br/&gt;+ setDistribucion(Distribucio): void&lt;br/&gt;+ eliminarPrestatgerias(String): void&lt;br/&gt;+ setDistribucionCtrl(ControladorDistribucio): void&lt;br/&gt;+ guardarPrestatgeria(String): void&lt;br/&gt;+ buscarPrestatgerias(String, String): void&lt;br/&gt;+ creaPrest(String, int): void&lt;br/&gt;+ crearPres2(ControladorPrestatgeria): void&lt;br/&gt;+ editarNombreUsuariPrestatgeria(String, String): void&lt;br/&gt;+ setAltura(int): void&lt;br/&gt;+ setNom(String): void&lt;br/&gt;+ limpiarDatos(): void&lt;br/&gt;+ getDistribucion(): Distribucio&lt;br/&gt;+ eliminarPrestatgeria(String, String): void&lt;br/&gt;+ cargarPrestatgeria(String, String): ControladorPrestatgeria?&lt;br/&gt;+ getNombreDeproductes(): String&lt;br/&gt;+ getPrestatgeria(): Prestatgeria&lt;br/&gt;+ cargarTodasPrestatgeries(String): Set&amp;lt;String&amp;gt;&lt;/p&gt;" style="verticalAlign=top;align=left;overflow=fill;fontSize=14;fontFamily=Helvetica;html=1;rounded=0;shadow=0;comic=0;labelBackgroundColor=none;strokeWidth=1;">
      <mxGeometry x="317" y="895" width="416" height="544" as="geometry" />
    </mxCell>
    <mxCell id="node9" parent="1" vertex="1" value="&lt;p style=&quot;margin:0px;margin-top:4px;text-align:center;&quot;&gt;&lt;b&gt;ControladorProducte&lt;/b&gt;&lt;/p&gt;&lt;hr size=&quot;1&quot;/&gt;&lt;p style=&quot;margin:0 0 0 4px;line-height:1.6;&quot;&gt;- producte: Producte&lt;/p&gt;&lt;hr size=&quot;1&quot;/&gt;&lt;p style=&quot;margin:0 0 0 4px;line-height:1.6;&quot;&gt;+ getMarca(): String&lt;br/&gt;+ getQuantitat(): int&lt;br/&gt;+ getNom(): String&lt;br/&gt;+ setSimilitud(Producte, int): void&lt;br/&gt;+ setQuantitat(int): void&lt;br/&gt;+ setNom(String): void&lt;br/&gt;+ getPreu(): double&lt;br/&gt;+ setPreu(double): void&lt;br/&gt;+ setMarca(String): void&lt;br/&gt;+ getSimilitud(Producte): int&lt;/p&gt;" style="verticalAlign=top;align=left;overflow=fill;fontSize=14;fontFamily=Helvetica;html=1;rounded=0;shadow=0;comic=0;labelBackgroundColor=none;strokeWidth=1;">
      <mxGeometry x="2304" y="405" width="241" height="304" as="geometry" />
    </mxCell>
    <mxCell id="node3" parent="1" vertex="1" value="&lt;p style=&quot;margin:0px;margin-top:4px;text-align:center;&quot;&gt;&lt;b&gt;ControladorProducteColocat&lt;/b&gt;&lt;/p&gt;&lt;hr size=&quot;1&quot;/&gt;&lt;p style=&quot;margin:0 0 0 4px;line-height:1.6;&quot;&gt;- producteColocat: ProducteColocat&lt;/p&gt;&lt;hr size=&quot;1&quot;/&gt;&lt;p style=&quot;margin:0 0 0 4px;line-height:1.6;&quot;&gt;+ setPos(int): void&lt;br/&gt;+ getAltura(): int&lt;br/&gt;+ getProducte(): Producte&lt;br/&gt;+ setAltura(int): void&lt;br/&gt;+ setProducte(Producte): void&lt;br/&gt;+ setManualmenteModificado(boolean): void&lt;br/&gt;+ getPos(): int&lt;br/&gt;+ isManualmenteModificado(): boolean&lt;/p&gt;" style="verticalAlign=top;align=left;overflow=fill;fontSize=14;fontFamily=Helvetica;html=1;rounded=0;shadow=0;comic=0;labelBackgroundColor=none;strokeWidth=1;">
      <mxGeometry x="1424" y="-73" width="312" height="256" as="geometry" />
    </mxCell>
    <mxCell id="node0" parent="1" vertex="1" value="&lt;p style=&quot;margin:0px;margin-top:4px;text-align:center;&quot;&gt;&lt;b&gt;Distribucio&lt;/b&gt;&lt;/p&gt;&lt;hr size=&quot;1&quot;/&gt;&lt;p style=&quot;margin:0 0 0 4px;line-height:1.6;&quot;&gt;- nombre: String&lt;br/&gt;- usar_cambios_fijos: boolean&lt;br/&gt;- estrategiaCalculo: EstrategiaCalculo&lt;br/&gt;- numero_prestatges: int&lt;br/&gt;- identificador_estrategia: int&lt;br/&gt;- productesColocats: ArrayList&amp;lt;ProducteColocat&amp;gt;&lt;/p&gt;&lt;hr size=&quot;1&quot;/&gt;&lt;p style=&quot;margin:0 0 0 4px;line-height:1.6;&quot;&gt;+ setProductesColocats(ArrayList&amp;lt;ProducteColocat&amp;gt;): void&lt;br/&gt;+ afegeixproducte(ProducteColocat): void&lt;br/&gt;+ setCambiosManualesRealizados(boolean): void&lt;br/&gt;+ canvia_estrategia_calculo(EstrategiaCalculo, int): void&lt;br/&gt;+ isCambiosManualesRealizados(): boolean&lt;br/&gt;+ elimina_producte(String): void&lt;br/&gt;+ getSimilitud(String, String): int&lt;br/&gt;+ calcula_distribucio(int): void&lt;br/&gt;+ getIdentificador_estrategia(): int&lt;br/&gt;+ afegeix_producte_colocat(ProducteColocat): void&lt;br/&gt;+ intercambiar_productes(int, int): void&lt;br/&gt;+ getNumero_prestatges(): int&lt;br/&gt;+ obtenirProductePos(int): Producte&lt;br/&gt;+ getEstrategiaCalculo(): EstrategiaCalculo&lt;br/&gt;+ getProductesColocats(): ArrayList&amp;lt;ProducteColocat&amp;gt;&lt;/p&gt;" style="verticalAlign=top;align=left;overflow=fill;fontSize=14;fontFamily=Helvetica;html=1;rounded=0;shadow=0;comic=0;labelBackgroundColor=none;strokeWidth=1;">
      <mxGeometry x="839" y="285" width="403" height="544" as="geometry" />
    </mxCell>
    <mxCell id="node2" parent="1" vertex="1" value="&lt;p style=&quot;margin:0px;margin-top:4px;text-align:center;&quot;&gt;&lt;i&gt;&amp;lt;&amp;lt;interface&amp;gt;&amp;gt;&lt;/i&gt;&lt;br/&gt;&lt;b&gt;EstrategiaCalculo&lt;/b&gt;&lt;/p&gt;&lt;hr size=&quot;1&quot;/&gt;&lt;p style=&quot;margin:0 0 0 4px;line-height:1.6;&quot;&gt;+ arrangeProductsBySimilarity(List&amp;lt;ProducteColocat&amp;gt;, int): List&amp;lt;ProducteColocat&amp;gt;&lt;/p&gt;" style="verticalAlign=top;align=left;overflow=fill;fontSize=14;fontFamily=Helvetica;html=1;rounded=0;shadow=0;comic=0;labelBackgroundColor=none;strokeWidth=1;">
      <mxGeometry x="766" y="1597" width="548" height="79" as="geometry" />
    </mxCell>
    <mxCell id="node12" parent="1" vertex="1" value="&lt;p style=&quot;margin:0px;margin-top:4px;text-align:center;&quot;&gt;&lt;b&gt;EstrategiaOneToOne&lt;/b&gt;&lt;/p&gt;&lt;hr size=&quot;1&quot;/&gt;&lt;p style=&quot;margin:0 0 0 4px;line-height:1.6;&quot;&gt;+ arrangeProductsBySimilarity(List&amp;lt;ProducteColocat&amp;gt;, int): List&amp;lt;ProducteColocat&amp;gt;&lt;/p&gt;" style="verticalAlign=top;align=left;overflow=fill;fontSize=14;fontFamily=Helvetica;html=1;rounded=0;shadow=0;comic=0;labelBackgroundColor=none;strokeWidth=1;">
      <mxGeometry x="766" y="1827" width="548" height="68" as="geometry" />
    </mxCell>
    <mxCell id="node6" parent="1" vertex="1" value="&lt;p style=&quot;margin:0px;margin-top:4px;text-align:center;&quot;&gt;&lt;b&gt;EstrategiaTSP&lt;/b&gt;&lt;/p&gt;&lt;hr size=&quot;1&quot;/&gt;&lt;p style=&quot;margin:0 0 0 4px;line-height:1.6;&quot;&gt;+ arrangeProductsBySimilarity(List&amp;lt;ProducteColocat&amp;gt;, int): List&amp;lt;ProducteColocat&amp;gt;&lt;br/&gt;- generateEdges(List&amp;lt;ProducteColocat&amp;gt;): ArrayList&amp;lt;Edge&amp;gt;&lt;br/&gt;+ cicloHamiltoniano(ArrayList&amp;lt;Edge&amp;gt;, ArrayList&amp;lt;Edge&amp;gt;, ArrayList&amp;lt;ProducteColocat&amp;gt;): ArrayList&amp;lt;String&amp;gt;&lt;br/&gt;- get_arista(Set&amp;lt;String&amp;gt;, String, ArrayList&amp;lt;Edge&amp;gt;): Edge&lt;br/&gt;- actualitza_posicions(List&amp;lt;ProducteColocat&amp;gt;, int): List&amp;lt;ProducteColocat&amp;gt;&lt;br/&gt;- calcula_numero_nodos(ArrayList&amp;lt;Edge&amp;gt;): Set&amp;lt;String&amp;gt;&lt;br/&gt;- prepara_salida(List&amp;lt;ProducteColocat&amp;gt;, ArrayList&amp;lt;String&amp;gt;): List&amp;lt;ProducteColocat&amp;gt;&lt;br/&gt;- prim(ArrayList&amp;lt;Edge&amp;gt;, List&amp;lt;ProducteColocat&amp;gt;): ArrayList&amp;lt;Edge&amp;gt;&lt;br/&gt;- get_similitud_2_productes(String, String, ArrayList&amp;lt;Edge&amp;gt;): int&lt;br/&gt;- calcula_similitud(ArrayList&amp;lt;String&amp;gt;, ArrayList&amp;lt;Edge&amp;gt;): int&lt;/p&gt;" style="verticalAlign=top;align=left;overflow=fill;fontSize=14;fontFamily=Helvetica;html=1;rounded=0;shadow=0;comic=0;labelBackgroundColor=none;strokeWidth=1;">
      <mxGeometry x="-74" y="1492" width="557" height="281" as="geometry" />
    </mxCell>
    <mxCell id="node8" parent="1" vertex="1" value="&lt;p style=&quot;margin:0px;margin-top:4px;text-align:center;&quot;&gt;&lt;b&gt;Perfil&lt;/b&gt;&lt;/p&gt;&lt;hr size=&quot;1&quot;/&gt;&lt;p style=&quot;margin:0 0 0 4px;line-height:1.6;&quot;&gt;- usuari: String&lt;br/&gt;- contrasenya: String&lt;br/&gt;- prestatgeria: List&amp;lt;Prestatgeria&amp;gt;&lt;/p&gt;&lt;hr size=&quot;1&quot;/&gt;&lt;p style=&quot;margin:0 0 0 4px;line-height:1.6;&quot;&gt;+ getUsuari(): String&lt;br/&gt;+ getPrestatgeria(): List&amp;lt;Prestatgeria&amp;gt;&lt;br/&gt;+ setPrestatgeria(List&amp;lt;Prestatgeria&amp;gt;): void&lt;br/&gt;+ setContrasenya(String): void&lt;br/&gt;+ setUsuari(String): void&lt;br/&gt;+ getContrasenya(): String&lt;br/&gt;+ eliminarPrestatgeria(Prestatgeria): void&lt;br/&gt;+ añadirPrestatgeria(Prestatgeria): void&lt;/p&gt;" style="verticalAlign=top;align=left;overflow=fill;fontSize=14;fontFamily=Helvetica;html=1;rounded=0;shadow=0;comic=0;labelBackgroundColor=none;strokeWidth=1;">
      <mxGeometry x="-172" y="405" width="300" height="304" as="geometry" />
    </mxCell>
    <mxCell id="node1" parent="1" vertex="1" value="&lt;p style=&quot;margin:0px;margin-top:4px;text-align:center;&quot;&gt;&lt;b&gt;Prestatgeria&lt;/b&gt;&lt;/p&gt;&lt;hr size=&quot;1&quot;/&gt;&lt;p style=&quot;margin:0 0 0 4px;line-height:1.6;&quot;&gt;- nom: String&lt;br/&gt;- altura: int&lt;br/&gt;- distribucion: Distribucio&lt;/p&gt;&lt;hr size=&quot;1&quot;/&gt;&lt;p style=&quot;margin:0 0 0 4px;line-height:1.6;&quot;&gt;+ setAltura(int): void&lt;br/&gt;+ setNom(String): void&lt;br/&gt;+ getAltura(): int&lt;br/&gt;+ getDistribucion(): Distribucio&lt;br/&gt;+ setDistribucion(Distribucio): void&lt;br/&gt;+ getNom(): String&lt;br/&gt;+ eliminaDistribucio(Distribucio): void&lt;/p&gt;" style="verticalAlign=top;align=left;overflow=fill;fontSize=14;fontFamily=Helvetica;html=1;rounded=0;shadow=0;comic=0;labelBackgroundColor=none;strokeWidth=1;">
      <mxGeometry x="394" y="417" width="263" height="280" as="geometry" />
    </mxCell>
    <mxCell id="node10" parent="1" vertex="1" value="&lt;p style=&quot;margin:0px;margin-top:4px;text-align:center;&quot;&gt;&lt;b&gt;Producte&lt;/b&gt;&lt;/p&gt;&lt;hr size=&quot;1&quot;/&gt;&lt;p style=&quot;margin:0 0 0 4px;line-height:1.6;&quot;&gt;- marca: String&lt;br/&gt;- quantitat: int&lt;br/&gt;- preu: double&lt;br/&gt;- nom: String&lt;br/&gt;- similituds: Map&amp;lt;Producte, Integer&amp;gt;&lt;/p&gt;&lt;hr size=&quot;1&quot;/&gt;&lt;p style=&quot;margin:0 0 0 4px;line-height:1.6;&quot;&gt;+ setMarca(String): void&lt;br/&gt;+ getQuantitat(): int&lt;br/&gt;+ getSimilitud(Producte): int&lt;br/&gt;+ setNom(String): void&lt;br/&gt;+ setQuantitat(int): void&lt;br/&gt;+ getNom(): String&lt;br/&gt;+ setPreu(double): void&lt;br/&gt;+ getPreu(): double&lt;br/&gt;+ setSimilitud(Producte, int): void&lt;br/&gt;+ toString(): String&lt;br/&gt;+ getMarca(): String&lt;/p&gt;" style="verticalAlign=top;align=left;overflow=fill;fontSize=14;fontFamily=Helvetica;html=1;rounded=0;shadow=0;comic=0;labelBackgroundColor=none;strokeWidth=1;">
      <mxGeometry x="1887" y="345" width="265" height="424" as="geometry" />
    </mxCell>
    <mxCell id="node7" parent="1" vertex="1" value="&lt;p style=&quot;margin:0px;margin-top:4px;text-align:center;&quot;&gt;&lt;b&gt;ProducteColocat&lt;/b&gt;&lt;/p&gt;&lt;hr size=&quot;1&quot;/&gt;&lt;p style=&quot;margin:0 0 0 4px;line-height:1.6;&quot;&gt;- producte: Producte&lt;br/&gt;- pos: int&lt;br/&gt;- altura: int&lt;br/&gt;- manualmenteModificado: boolean&lt;/p&gt;&lt;hr size=&quot;1&quot;/&gt;&lt;p style=&quot;margin:0 0 0 4px;line-height:1.6;&quot;&gt;+ setManualmenteModificado(boolean): void&lt;br/&gt;+ getAltura(): int&lt;br/&gt;+ getProducte(): Producte&lt;br/&gt;+ getnom(): String&lt;br/&gt;+ setProducte(Producte): void&lt;br/&gt;+ setAltura(int): void&lt;br/&gt;+ getPos(): int&lt;br/&gt;+ calculateSimilarity(Producte): int&lt;br/&gt;+ esValidaAltura(int): boolean&lt;br/&gt;+ setPos(int): void&lt;br/&gt;+ isManualmenteModificado(): boolean&lt;/p&gt;" style="verticalAlign=top;align=left;overflow=fill;fontSize=14;fontFamily=Helvetica;html=1;rounded=0;shadow=0;comic=0;labelBackgroundColor=none;strokeWidth=1;">
      <mxGeometry x="1424" y="357" width="312" height="400" as="geometry" />
    </mxCell>
    <mxCell id="edge8" edge="1" value="" parent="1" source="node4" target="node2" style="html=1;rounded=1;edgeStyle=orthogonalEdgeStyle;dashed=1;startArrow=none;endArrow=block;endSize=12;strokeColor=#008200;exitX=0.000;exitY=0.500;exitDx=0;exitDy=0;entryX=1.000;entryY=0.500;entryDx=0;entryDy=0;">
      <mxGeometry width="50" height="50" relative="1" as="geometry">
        <Array as="points" />
      </mxGeometry>
    </mxCell>
    <mxCell id="edge7" edge="1" value="" parent="1" source="node5" target="node0" style="html=1;rounded=1;edgeStyle=orthogonalEdgeStyle;dashed=0;startArrow=diamondThinstartSize=12;endArrow=openThin;endSize=12;strokeColor=#595959;exitX=1.000;exitY=0.500;exitDx=0;exitDy=0;entryX=0.500;entryY=0.000;entryDx=0;entryDy=0;">
      <mxGeometry width="50" height="50" relative="1" as="geometry">
        <Array as="points">
          <mxPoint x="850" y="-134" />
          <mxPoint x="850" y="-326" />
          <mxPoint x="1040" y="-326" />
        </Array>
      </mxGeometry>
    </mxCell>
    <mxCell id="label42" parent="edge7" vertex="1" connectable="0" value="1" style="edgeLabel;resizable=0;html=1;align=left;verticalAlign=top;strokeColor=default;">
      <mxGeometry x="796" y="-134" as="geometry" />
    </mxCell>
    <mxCell id="label46" parent="edge7" vertex="1" connectable="0" value="1" style="edgeLabel;resizable=0;html=1;align=left;verticalAlign=top;strokeColor=default;">
      <mxGeometry x="993" y="212" as="geometry" />
    </mxCell>
    <mxCell id="label47" parent="edge7" vertex="1" connectable="0" value="distribucion" style="edgeLabel;resizable=0;html=1;align=left;verticalAlign=top;strokeColor=default;">
      <mxGeometry x="1040" y="-101" as="geometry" />
    </mxCell>
    <mxCell id="edge0" edge="1" value="" parent="1" source="node5" target="node1" style="html=1;rounded=1;edgeStyle=orthogonalEdgeStyle;dashed=0;startArrow=diamondThinstartSize=12;endArrow=openThin;endSize=12;strokeColor=#595959;exitX=0.500;exitY=1.000;exitDx=0;exitDy=0;entryX=0.500;entryY=0.000;entryDx=0;entryDy=0;">
      <mxGeometry width="50" height="50" relative="1" as="geometry">
        <Array as="points" />
      </mxGeometry>
    </mxCell>
    <mxCell id="label0" parent="edge0" vertex="1" connectable="0" value="1" style="edgeLabel;resizable=0;html=1;align=left;verticalAlign=top;strokeColor=default;">
      <mxGeometry x="473" y="251" as="geometry" />
    </mxCell>
    <mxCell id="label4" parent="edge0" vertex="1" connectable="0" value="1" style="edgeLabel;resizable=0;html=1;align=left;verticalAlign=top;strokeColor=default;">
      <mxGeometry x="513" y="322" as="geometry" />
    </mxCell>
    <mxCell id="label5" parent="edge0" vertex="1" connectable="0" value="prestatgeria" style="edgeLabel;resizable=0;html=1;align=left;verticalAlign=top;strokeColor=default;">
      <mxGeometry x="525" y="322" as="geometry" />
    </mxCell>
    <mxCell id="edge9" edge="1" value="" parent="1" source="node13" target="node8" style="html=1;rounded=1;edgeStyle=orthogonalEdgeStyle;dashed=0;startArrow=diamondThinstartSize=12;endArrow=openThin;endSize=12;strokeColor=#595959;exitX=1.000;exitY=0.500;exitDx=0;exitDy=0;entryX=0.000;entryY=0.500;entryDx=0;entryDy=0;">
      <mxGeometry width="50" height="50" relative="1" as="geometry">
        <Array as="points" />
      </mxGeometry>
    </mxCell>
    <mxCell id="label54" parent="edge9" vertex="1" connectable="0" value="1" style="edgeLabel;resizable=0;html=1;align=left;verticalAlign=top;strokeColor=default;">
      <mxGeometry x="-336" y="539" as="geometry" />
    </mxCell>
    <mxCell id="label58" parent="edge9" vertex="1" connectable="0" value="1" style="edgeLabel;resizable=0;html=1;align=left;verticalAlign=top;strokeColor=default;">
      <mxGeometry x="-208" y="539" as="geometry" />
    </mxCell>
    <mxCell id="label59" parent="edge9" vertex="1" connectable="0" value="perfil" style="edgeLabel;resizable=0;html=1;align=left;verticalAlign=top;strokeColor=default;">
      <mxGeometry x="-212" y="557" as="geometry" />
    </mxCell>
    <mxCell id="edge11" edge="1" value="" parent="1" source="node11" target="node1" style="html=1;rounded=1;edgeStyle=orthogonalEdgeStyle;dashed=0;startArrow=diamondThinstartSize=12;endArrow=openThin;endSize=12;strokeColor=#595959;exitX=0.500;exitY=0.000;exitDx=0;exitDy=0;entryX=0.500;entryY=1.000;entryDx=0;entryDy=0;">
      <mxGeometry width="50" height="50" relative="1" as="geometry">
        <Array as="points" />
      </mxGeometry>
    </mxCell>
    <mxCell id="label66" parent="edge11" vertex="1" connectable="0" value="1" style="edgeLabel;resizable=0;html=1;align=left;verticalAlign=top;strokeColor=default;">
      <mxGeometry x="513" y="872" as="geometry" />
    </mxCell>
    <mxCell id="label70" parent="edge11" vertex="1" connectable="0" value="1" style="edgeLabel;resizable=0;html=1;align=left;verticalAlign=top;strokeColor=default;">
      <mxGeometry x="513" y="702" as="geometry" />
    </mxCell>
    <mxCell id="label71" parent="edge11" vertex="1" connectable="0" value="prestatgeria" style="edgeLabel;resizable=0;html=1;align=left;verticalAlign=top;strokeColor=default;">
      <mxGeometry x="525" y="787" as="geometry" />
    </mxCell>
    <mxCell id="edge5" edge="1" value="" parent="1" source="node9" target="node10" style="html=1;rounded=1;edgeStyle=orthogonalEdgeStyle;dashed=0;startArrow=diamondThinstartSize=12;endArrow=openThin;endSize=12;strokeColor=#595959;exitX=0.000;exitY=0.500;exitDx=0;exitDy=0;entryX=1.000;entryY=0.500;entryDx=0;entryDy=0;">
      <mxGeometry width="50" height="50" relative="1" as="geometry">
        <Array as="points" />
      </mxGeometry>
    </mxCell>
    <mxCell id="label30" parent="edge5" vertex="1" connectable="0" value="1" style="edgeLabel;resizable=0;html=1;align=left;verticalAlign=top;strokeColor=default;">
      <mxGeometry x="2287" y="539" as="geometry" />
    </mxCell>
    <mxCell id="label34" parent="edge5" vertex="1" connectable="0" value="1" style="edgeLabel;resizable=0;html=1;align=left;verticalAlign=top;strokeColor=default;">
      <mxGeometry x="2174" y="539" as="geometry" />
    </mxCell>
    <mxCell id="label35" parent="edge5" vertex="1" connectable="0" value="producte" style="edgeLabel;resizable=0;html=1;align=left;verticalAlign=top;strokeColor=default;">
      <mxGeometry x="2238" y="557" as="geometry" />
    </mxCell>
    <mxCell id="edge12" edge="1" value="" parent="1" source="node3" target="node7" style="html=1;rounded=1;edgeStyle=orthogonalEdgeStyle;dashed=0;startArrow=diamondThinstartSize=12;endArrow=openThin;endSize=12;strokeColor=#595959;exitX=0.500;exitY=1.000;exitDx=0;exitDy=0;entryX=0.500;entryY=0.000;entryDx=0;entryDy=0;">
      <mxGeometry width="50" height="50" relative="1" as="geometry">
        <Array as="points" />
      </mxGeometry>
    </mxCell>
    <mxCell id="label72" parent="edge12" vertex="1" connectable="0" value="1" style="edgeLabel;resizable=0;html=1;align=left;verticalAlign=top;strokeColor=default;">
      <mxGeometry x="1568" y="188" as="geometry" />
    </mxCell>
    <mxCell id="label76" parent="edge12" vertex="1" connectable="0" value="1" style="edgeLabel;resizable=0;html=1;align=left;verticalAlign=top;strokeColor=default;">
      <mxGeometry x="1568" y="334" as="geometry" />
    </mxCell>
    <mxCell id="label77" parent="edge12" vertex="1" connectable="0" value="producteColocat" style="edgeLabel;resizable=0;html=1;align=left;verticalAlign=top;strokeColor=default;">
      <mxGeometry x="1580" y="261" as="geometry" />
    </mxCell>
    <mxCell id="edge10" edge="1" value="" parent="1" source="node0" target="node2" style="html=1;rounded=1;edgeStyle=orthogonalEdgeStyle;dashed=0;startArrow=diamondThinstartSize=12;endArrow=openThin;endSize=12;strokeColor=#595959;exitX=0.500;exitY=1.000;exitDx=0;exitDy=0;entryX=0.500;entryY=0.001;entryDx=0;entryDy=0;">
      <mxGeometry width="50" height="50" relative="1" as="geometry">
        <Array as="points" />
      </mxGeometry>
    </mxCell>
    <mxCell id="label60" parent="edge10" vertex="1" connectable="0" value="1" style="edgeLabel;resizable=0;html=1;align=left;verticalAlign=top;strokeColor=default;">
      <mxGeometry x="1028" y="842" as="geometry" />
    </mxCell>
    <mxCell id="label64" parent="edge10" vertex="1" connectable="0" value="1" style="edgeLabel;resizable=0;html=1;align=left;verticalAlign=top;strokeColor=default;">
      <mxGeometry x="1028" y="1565" as="geometry" />
    </mxCell>
    <mxCell id="label65" parent="edge10" vertex="1" connectable="0" value="estrategiaCalculo" style="edgeLabel;resizable=0;html=1;align=left;verticalAlign=top;strokeColor=default;">
      <mxGeometry x="1040" y="1565" as="geometry" />
    </mxCell>
    <mxCell id="edge6" edge="1" value="" parent="1" source="node0" target="node7" style="html=1;rounded=1;edgeStyle=orthogonalEdgeStyle;dashed=0;startArrow=diamondThinstartSize=12;endArrow=openThin;endSize=12;strokeColor=#595959;exitX=1.000;exitY=0.500;exitDx=0;exitDy=0;entryX=0.000;entryY=0.500;entryDx=0;entryDy=0;">
      <mxGeometry width="50" height="50" relative="1" as="geometry">
        <Array as="points" />
      </mxGeometry>
    </mxCell>
    <mxCell id="label36" parent="edge6" vertex="1" connectable="0" value="1" style="edgeLabel;resizable=0;html=1;align=left;verticalAlign=top;strokeColor=default;">
      <mxGeometry x="1265" y="539" as="geometry" />
    </mxCell>
    <mxCell id="label40" parent="edge6" vertex="1" connectable="0" value="*" style="edgeLabel;resizable=0;html=1;align=left;verticalAlign=top;strokeColor=default;">
      <mxGeometry x="1367" y="539" as="geometry" />
    </mxCell>
    <mxCell id="label41" parent="edge6" vertex="1" connectable="0" value="productesColocats" style="edgeLabel;resizable=0;html=1;align=left;verticalAlign=top;strokeColor=default;">
      <mxGeometry x="1215" y="557" as="geometry" />
    </mxCell>
    <mxCell id="edge1" edge="1" value="" parent="1" source="node12" target="node2" style="html=1;rounded=1;edgeStyle=orthogonalEdgeStyle;dashed=1;startArrow=none;endArrow=block;endSize=12;strokeColor=#008200;exitX=0.500;exitY=0.001;exitDx=0;exitDy=0;entryX=0.500;entryY=1.001;entryDx=0;entryDy=0;">
      <mxGeometry width="50" height="50" relative="1" as="geometry">
        <Array as="points" />
      </mxGeometry>
    </mxCell>
    <mxCell id="edge2" edge="1" value="" parent="1" source="node6" target="node2" style="html=1;rounded=1;edgeStyle=orthogonalEdgeStyle;dashed=1;startArrow=none;endArrow=block;endSize=12;strokeColor=#008200;exitX=1.000;exitY=0.500;exitDx=0;exitDy=0;entryX=0.000;entryY=0.500;entryDx=0;entryDy=0;">
      <mxGeometry width="50" height="50" relative="1" as="geometry">
        <Array as="points">
          <mxPoint x="735" y="1633" />
          <mxPoint x="735" y="1628" />
        </Array>
      </mxGeometry>
    </mxCell>
    <mxCell id="edge3" edge="1" value="" parent="1" source="node8" target="node1" style="html=1;rounded=1;edgeStyle=orthogonalEdgeStyle;dashed=0;startArrow=diamondThinstartSize=12;endArrow=openThin;endSize=12;strokeColor=#595959;exitX=1.000;exitY=0.500;exitDx=0;exitDy=0;entryX=0.000;entryY=0.500;entryDx=0;entryDy=0;">
      <mxGeometry width="50" height="50" relative="1" as="geometry">
        <Array as="points" />
      </mxGeometry>
    </mxCell>
    <mxCell id="label18" parent="edge3" vertex="1" connectable="0" value="1" style="edgeLabel;resizable=0;html=1;align=left;verticalAlign=top;strokeColor=default;">
      <mxGeometry x="157" y="539" as="geometry" />
    </mxCell>
    <mxCell id="label22" parent="edge3" vertex="1" connectable="0" value="*" style="edgeLabel;resizable=0;html=1;align=left;verticalAlign=top;strokeColor=default;">
      <mxGeometry x="349" y="539" as="geometry" />
    </mxCell>
    <mxCell id="label23" parent="edge3" vertex="1" connectable="0" value="prestatgeria" style="edgeLabel;resizable=0;html=1;align=left;verticalAlign=top;strokeColor=default;">
      <mxGeometry x="133" y="557" as="geometry" />
    </mxCell>
    <mxCell id="edge13" edge="1" value="" parent="1" source="node1" target="node0" style="html=1;rounded=1;edgeStyle=orthogonalEdgeStyle;dashed=0;startArrow=diamondThinstartSize=12;endArrow=openThin;endSize=12;strokeColor=#595959;exitX=1.000;exitY=0.500;exitDx=0;exitDy=0;entryX=0.000;entryY=0.500;entryDx=0;entryDy=0;">
      <mxGeometry width="50" height="50" relative="1" as="geometry">
        <Array as="points" />
      </mxGeometry>
    </mxCell>
    <mxCell id="label78" parent="edge13" vertex="1" connectable="0" value="1" style="edgeLabel;resizable=0;html=1;align=left;verticalAlign=top;strokeColor=default;">
      <mxGeometry x="683" y="539" as="geometry" />
    </mxCell>
    <mxCell id="label82" parent="edge13" vertex="1" connectable="0" value="1" style="edgeLabel;resizable=0;html=1;align=left;verticalAlign=top;strokeColor=default;">
      <mxGeometry x="800" y="539" as="geometry" />
    </mxCell>
    <mxCell id="label83" parent="edge13" vertex="1" connectable="0" value="distribucion" style="edgeLabel;resizable=0;html=1;align=left;verticalAlign=top;strokeColor=default;">
      <mxGeometry x="757" y="557" as="geometry" />
    </mxCell>
    <mxCell id="edge4" edge="1" value="" parent="1" source="node7" target="node10" style="html=1;rounded=1;edgeStyle=orthogonalEdgeStyle;dashed=0;startArrow=diamondThinstartSize=12;endArrow=openThin;endSize=12;strokeColor=#595959;exitX=1.000;exitY=0.500;exitDx=0;exitDy=0;entryX=0.000;entryY=0.500;entryDx=0;entryDy=0;">
      <mxGeometry width="50" height="50" relative="1" as="geometry">
        <Array as="points" />
      </mxGeometry>
    </mxCell>
    <mxCell id="label24" parent="edge4" vertex="1" connectable="0" value="1" style="edgeLabel;resizable=0;html=1;align=left;verticalAlign=top;strokeColor=default;">
      <mxGeometry x="1749" y="539" as="geometry" />
    </mxCell>
    <mxCell id="label28" parent="edge4" vertex="1" connectable="0" value="1" style="edgeLabel;resizable=0;html=1;align=left;verticalAlign=top;strokeColor=default;">
      <mxGeometry x="1862" y="539" as="geometry" />
    </mxCell>
    <mxCell id="label29" parent="edge4" vertex="1" connectable="0" value="producte" style="edgeLabel;resizable=0;html=1;align=left;verticalAlign=top;strokeColor=default;">
      <mxGeometry x="1741" y="557" as="geometry" />
    </mxCell>
  </root>
</mxGraphModel>